<svg width="30" height="30" viewBox="0 0 30 30" fill="none" xmlns="http://www.w3.org/2000/svg">
<path d="M24.6 14.7C24.6 14.9761 24.8238 15.2 25.1 15.2C25.3761 15.2 25.6 14.9761 25.6 14.7H24.6ZM25.6 14.7V8.29995H24.6V14.7H25.6ZM22.4 5.19995H14.7V6.19995H22.4V5.19995ZM22.5 5.19995H22.4V6.19995H22.5V5.19995ZM25.6 8.29995C25.6 6.58787 24.2121 5.19995 22.5 5.19995V6.19995C23.6598 6.19995 24.6 7.14015 24.6 8.29995H25.6Z" fill="white"/>
<path d="M14.6 25.3999C14.8761 25.3999 15.1 25.176 15.1 24.8999C15.1 24.6238 14.8761 24.3999 14.6 24.3999V25.3999ZM3.69998 15.8999L3.69998 22.2999H4.69998L4.69998 15.8999H3.69998ZM6.89998 25.3999H14.6V24.3999H6.89998V25.3999ZM6.79998 25.3999H6.89998V24.3999H6.79998V25.3999ZM3.69998 22.2999C3.69998 24.012 5.08789 25.3999 6.79998 25.3999V24.3999C5.64018 24.3999 4.69998 23.4597 4.69998 22.2999H3.69998Z" fill="white"/>
<path d="M14.7 6.19985C14.9761 6.19985 15.2 5.976 15.2 5.69985C15.2 5.42371 14.9761 5.19985 14.7 5.19985V6.19985ZM14.7 5.19985H6.79998L6.79998 6.19985H14.7V5.19985ZM3.69998 8.39985L3.69998 16.0999H4.69998V8.39985H3.69998ZM3.69998 8.29985V8.39985H4.69998L4.69998 8.29985H3.69998ZM6.79998 5.19985C5.0879 5.19985 3.69998 6.58777 3.69998 8.29985H4.69998C4.69998 7.14006 5.64018 6.19985 6.79998 6.19985L6.79998 5.19985Z" fill="white"/>
<path d="M9.60001 3.80005V7.50005" stroke="white" stroke-width="1.2" stroke-linecap="round"/>
<path d="M19.2 3.80005V7.50005" stroke="white" stroke-width="1.2" stroke-linecap="round"/>
<path d="M4.59998 12.0999L24.8 12.0999" stroke="white" stroke-width="1.2" stroke-linecap="square"/>
<circle cx="20.5" cy="20.5999" r="5" stroke="white"/>
<path d="M20.4 18.0999V22.7999" stroke="white" stroke-width="1.2" stroke-linecap="round"/>
<path d="M22.7 20.5H18" stroke="white" stroke-width="1.2" stroke-linecap="round"/>
</svg>
