<svg width="30" height="30" viewBox="0 0 30 30" fill="none" xmlns="http://www.w3.org/2000/svg">
<path d="M26.125 14.5C26 14.375 26 14.25 25.875 14.125L22.125 10.375C21.625 9.875 20.875 9.875 20.375 10.375C19.875 10.875 19.875 11.625 20.375 12.125L22 13.75H16.25C15.5 13.75 15 14.25 15 15C15 15.75 15.5 16.25 16.25 16.25H22L20.375 17.875C19.875 18.375 19.875 19.125 20.375 19.625C20.625 19.875 21 20 21.25 20C21.5 20 21.875 19.875 22.125 19.625L25.875 15.875C26 15.75 26.125 15.625 26.125 15.5C26.25 15.125 26.25 14.875 26.125 14.5Z" fill="white"/>
<path d="M19.375 22.625C18 23.375 16.5 23.75 15 23.75C10.125 23.75 6.25 19.875 6.25 15C6.25 10.125 10.125 6.25 15 6.25C16.5 6.25 18 6.625 19.375 7.375C20 7.75 20.75 7.5 21.125 6.875C21.5 6.25 21.25 5.5 20.625 5.125C18.875 4.25 17 3.75 15 3.75C8.75 3.75 3.75 8.75 3.75 15C3.75 21.25 8.75 26.25 15 26.25C17 26.25 18.875 25.75 20.625 24.75C21.25 24.375 21.375 23.625 21.125 23C20.75 22.5 20 22.25 19.375 22.625Z" fill="white"/>
</svg>
