<svg width="30" height="30" viewBox="0 0 30 30" fill="none" xmlns="http://www.w3.org/2000/svg">
<path d="M3.84467 4H25.8407C26.1679 4 26.433 4.26546 26.433 4.59264V7.39097C26.433 7.71815 26.1679 7.98361 25.8407 7.98361H24.676V22.417H26.1004C26.8799 22.417 26.8799 23.602 26.1004 23.602H20.5761V26.3609C20.5761 27.1404 19.3911 27.1404 19.3911 26.3609V23.602H10.294V26.3609C10.294 27.1404 9.109 27.1404 9.109 26.3609V23.602H3.58464C2.80512 23.602 2.80512 22.417 3.58464 22.417H5.00909V7.98361H3.84467C3.51749 7.98361 3.25203 7.71815 3.25203 7.39097V4.59264C3.25203 4.26546 3.51749 4 3.84467 4ZM9.93881 19.0012C9.51933 19.655 8.52408 19.016 8.94355 18.3623L12.4577 12.8959C12.6648 12.5733 13.1186 12.5327 13.3815 12.8053L16.1718 15.4842L19.7994 11.3297C20.3103 10.7459 21.199 11.5237 20.6884 12.1075L16.6693 16.7101C16.4519 16.9795 16.0498 17.0058 15.7995 16.7649L13.0643 14.1392L9.93881 19.0012ZM23.491 7.98361H6.19437V22.417H23.491V7.98361ZM25.248 5.185H4.43731V6.79833H25.248V5.185Z" fill="white"/>
</svg>
