<svg width="30" height="30" viewBox="0 0 30 30" fill="none" xmlns="http://www.w3.org/2000/svg">
<path d="M10.5078 15.875C6.90075 17.5 4.28512 20.8751 3.82812 25.0001C3.82812 26.3751 4.86925 27.5001 6.25 27.5001H23.75C25.1313 27.5001 26.1725 26.3751 26.1725 25.0001C25.715 20.8751 23.0987 17.5 19.4925 15.875C18.6812 17.5 16.9788 18.7501 15 18.7501C13.0212 18.7501 11.3184 17.5 10.5078 15.875Z" fill="#DFDFDF"/>
<path d="M21.25 8.75C21.25 10.4076 20.5915 11.9973 19.4194 13.1694C18.2473 14.3415 16.6576 15 15 15C13.3424 15 11.7527 14.3415 10.5806 13.1694C9.40848 11.9973 8.75 10.4076 8.75 8.75C8.75 7.0924 9.40848 5.50269 10.5806 4.33058C11.7527 3.15848 13.3424 2.5 15 2.5C16.6576 2.5 18.2473 3.15848 19.4194 4.33058C20.5915 5.50269 21.25 7.0924 21.25 8.75Z" fill="white"/>
<path d="M15 13.75C13.4038 13.75 11.8821 14.0863 10.5078 14.6875C6.90075 16.265 4.28512 19.6838 3.82812 23.75C3.82812 25.1313 4.86925 26.25 6.25 26.25H23.75C25.1313 26.25 26.1725 25.1313 26.1725 23.75C25.715 19.6838 23.0987 16.265 19.4925 14.6875C18.1175 14.0863 16.5962 13.75 15 13.75Z" fill="white"/>
</svg>
