<svg width="24" height="24" viewBox="0 0 24 24" fill="none" xmlns="http://www.w3.org/2000/svg">
<path d="M22.6667 10.6667H16.5334L18.2667 8.93332C18.8001 8.39999 18.8001 7.59999 18.2667 7.06666C17.7334 6.53332 16.9334 6.53332 16.4001 7.06666L12.4001 11.0667C12.2667 11.2 12.1334 11.3333 12.1334 11.4667C12.0001 11.7333 12.0001 12.1333 12.1334 12.5333C12.2667 12.6667 12.2667 12.8 12.4001 12.9333L16.4001 16.9333C16.6667 17.2 17.0667 17.3333 17.3334 17.3333C17.6001 17.3333 18.0001 17.2 18.2667 16.9333C18.8001 16.4 18.8001 15.6 18.2667 15.0667L16.5334 13.3333H22.6667C23.4667 13.3333 24.0001 12.8 24.0001 12C24.0001 11.2 23.4667 10.6667 22.6667 10.6667Z" fill="#9B9B9B"/>
<path d="M16.6667 20.1333C15.2 20.9333 13.6 21.3333 12 21.3333C6.8 21.3333 2.66667 17.2 2.66667 12C2.66667 6.8 6.8 2.66667 12 2.66667C13.6 2.66667 15.2 3.06667 16.6667 3.86667C17.3333 4.26667 18.1333 4 18.5333 3.33333C18.9333 2.66667 18.6667 1.86667 18 1.46667C16.1333 0.533333 14.1333 0 12 0C5.33333 0 0 5.33333 0 12C0 18.6667 5.33333 24 12 24C14.1333 24 16.1333 23.4667 18 22.4C18.6667 22 18.8 21.2 18.5333 20.5333C18.1333 20 17.3333 19.7333 16.6667 20.1333Z" fill="#9B9B9B"/>
</svg>
