<svg width="30" height="30" viewBox="0 0 30 30" fill="none" xmlns="http://www.w3.org/2000/svg">
<path d="M14.5313 26.0625C12.2506 26.0625 10.0211 25.3862 8.12484 24.1191C6.22853 22.8521 4.75054 21.0511 3.87777 18.9441C3.005 16.837 2.77664 14.5185 3.22157 12.2816C3.66651 10.0448 4.76476 7.9901 6.37743 6.37743C7.9901 4.76476 10.0448 3.66651 12.2816 3.22157C14.5185 2.77664 16.837 3.005 18.9441 3.87777C21.0511 4.75054 22.8521 6.22853 24.1191 8.12484C25.3862 10.0211 26.0625 12.2506 26.0625 14.5313C26.0625 17.5895 24.8476 20.5226 22.6851 22.6851C20.5226 24.8476 17.5895 26.0625 14.5313 26.0625ZM14.5313 4.53751C12.5547 4.53751 10.6225 5.12363 8.97903 6.22176C7.33556 7.31988 6.05464 8.88069 5.29823 10.7068C4.54183 12.5329 4.34392 14.5423 4.72953 16.4809C5.11514 18.4195 6.06696 20.2003 7.46461 21.5979C8.86226 22.9956 10.643 23.9474 12.5816 24.333C14.5202 24.7186 16.5296 24.5207 18.3557 23.7643C20.1818 23.0079 21.7426 21.727 22.8408 20.0835C23.9389 18.44 24.525 16.5078 24.525 14.5313C24.525 11.8807 23.4721 9.3388 21.5979 7.46461C19.7237 5.59042 17.1818 4.53751 14.5313 4.53751Z" fill="white"/>
<path d="M17.7908 18.8825L13.9855 15.0772C13.9142 15.0053 13.8578 14.9201 13.8196 14.8265C13.7813 14.7328 13.7619 14.6325 13.7625 14.5313V8.38135H15.3V14.2162L18.8824 17.7908L17.7908 18.8825Z" fill="white"/>
</svg>
