<svg width="25" height="25" viewBox="0 0 25 25" fill="none" xmlns="http://www.w3.org/2000/svg">
<path d="M14.2207 24.3672H10.6834C10.4663 24.3672 10.2569 24.2869 10.0955 24.1417C9.93404 23.9966 9.83207 23.7968 9.8092 23.5809L9.54729 21.1146C9.18166 20.9902 8.82447 20.8423 8.47795 20.6717L6.55081 22.2303C6.38214 22.3661 6.16925 22.4349 5.95298 22.4234C5.73672 22.412 5.53229 22.3211 5.37893 22.1682L2.87756 19.6668C2.72465 19.5134 2.63374 19.309 2.62228 19.0927C2.61082 18.8765 2.67961 18.6636 2.81545 18.4949L4.37463 16.5654C4.20377 16.219 4.05561 15.8618 3.93108 15.4961L1.46077 15.2324C1.24497 15.2096 1.04526 15.1077 0.900081 14.9464C0.754906 14.7851 0.674533 14.5758 0.674438 14.3588V10.8209C0.674533 10.6039 0.754906 10.3946 0.900081 10.2333C1.04526 10.072 1.24497 9.97012 1.46077 9.94727L3.92698 9.68535C4.05151 9.31967 4.19967 8.96248 4.37053 8.61602L2.81135 6.68653C2.67551 6.51786 2.60672 6.30497 2.61818 6.0887C2.62964 5.87244 2.72055 5.66801 2.87346 5.51465L5.37483 3.01328C5.52819 2.86037 5.73261 2.76946 5.94888 2.758C6.16515 2.74654 6.37804 2.81533 6.5467 2.95117L8.4762 4.50977C8.82271 4.3392 9.1799 4.19123 9.54553 4.0668L9.80745 1.60059C9.82994 1.38407 9.93198 1.1836 10.0938 1.03801C10.2556 0.89242 10.4657 0.812062 10.6834 0.812502H14.2207C14.4378 0.812452 14.6473 0.892759 14.8087 1.03795C14.9701 1.18314 15.0721 1.38293 15.0949 1.59883L15.3563 4.06504C15.7221 4.18947 16.0795 4.33744 16.4262 4.50801L18.3551 2.94942C18.5238 2.81357 18.7367 2.74478 18.9529 2.75624C19.1692 2.7677 19.3736 2.85861 19.527 3.01153L22.0283 5.51289C22.1813 5.66626 22.2722 5.87068 22.2836 6.08695C22.2951 6.30321 22.2263 6.5161 22.0905 6.68477L20.5313 8.61426C20.7019 8.96083 20.8501 9.31801 20.9748 9.6836L23.441 9.94551C23.6567 9.9685 23.8563 10.0704 24.0014 10.2317C24.1464 10.393 24.2267 10.6022 24.2268 10.8191V14.357C24.2272 14.5739 24.1474 14.7832 24.0028 14.9448C23.8582 15.1064 23.659 15.2089 23.4434 15.2324L20.9772 15.4943C20.8524 15.8599 20.7042 16.2171 20.5336 16.5637L22.0928 18.4932C22.2286 18.6618 22.2974 18.8747 22.286 19.091C22.2745 19.3073 22.1836 19.5117 22.0307 19.665L19.5293 22.1682C19.376 22.3211 19.1715 22.412 18.9553 22.4234C18.739 22.4349 18.5261 22.3661 18.3574 22.2303L16.4285 20.6717C16.0818 20.8423 15.7244 20.9902 15.3586 21.1146L15.0973 23.5809C15.0744 23.7972 14.9721 23.9973 14.8102 24.1425C14.6483 24.2878 14.4382 24.3678 14.2207 24.3672ZM11.4727 22.6094H13.4291L13.6688 20.35C13.6876 20.1732 13.7596 20.0062 13.8753 19.8711C13.991 19.7361 14.145 19.6393 14.3168 19.5936C14.9359 19.4285 15.5302 19.1816 16.084 18.8594C16.2382 18.7695 16.4161 18.7288 16.594 18.7425C16.772 18.7562 16.9415 18.8237 17.0801 18.9361L18.8473 20.3641L20.2307 18.9807L18.8004 17.2188C18.688 17.0801 18.6205 16.9106 18.6067 16.7327C18.593 16.5547 18.6338 16.3769 18.7237 16.2227C19.0452 15.6692 19.2913 15.0753 19.4555 14.4566C19.5012 14.2847 19.5981 14.1307 19.7333 14.015C19.8685 13.8992 20.0356 13.8273 20.2125 13.8086L22.4713 13.5684V11.6119L20.2125 11.3717C20.0356 11.353 19.8685 11.281 19.7333 11.1653C19.5981 11.0496 19.5012 10.8956 19.4555 10.7236C19.2913 10.1048 19.0452 9.51067 18.7237 8.95703C18.6338 8.80284 18.593 8.62495 18.6067 8.44702C18.6205 8.26909 18.688 8.09955 18.8004 7.96094L20.2283 6.19375L18.8449 4.81035L17.0778 6.23828C16.9392 6.35069 16.7696 6.41824 16.5917 6.43195C16.4137 6.44566 16.2359 6.40489 16.0817 6.31504C15.5281 5.99376 14.9342 5.74765 14.3156 5.5832C14.1438 5.53749 13.9898 5.44071 13.8741 5.30565C13.7584 5.17059 13.6864 5.00361 13.6676 4.82676L13.4303 2.57031H11.4727L11.233 4.82969C11.2142 5.00661 11.1421 5.17365 11.0263 5.30872C10.9105 5.44378 10.7564 5.54052 10.5844 5.58613C9.96629 5.75133 9.37297 5.99823 8.82014 6.32031C8.66595 6.41016 8.48806 6.45094 8.31013 6.43723C8.1322 6.42352 7.96265 6.35596 7.82405 6.24356L6.05862 4.81328L4.67581 6.19668L6.10432 7.96387C6.21664 8.10254 6.28408 8.27211 6.29769 8.45004C6.3113 8.62797 6.27042 8.80583 6.18049 8.95996C5.85947 9.51365 5.61337 10.1075 5.44866 10.726C5.40294 10.8978 5.30616 11.0518 5.1711 11.1675C5.03604 11.2832 4.86906 11.3552 4.69221 11.374L2.43284 11.6143V13.5701L4.69221 13.8104C4.86906 13.8292 5.03604 13.9012 5.1711 14.0169C5.30616 14.1326 5.40294 14.2865 5.44866 14.4584C5.61333 15.0762 5.85923 15.6695 6.17991 16.2227C6.26983 16.3768 6.31071 16.5546 6.2971 16.7326C6.2835 16.9105 6.21605 17.0801 6.10374 17.2188L4.67581 18.983L6.0592 20.3664L7.82698 18.9385C7.96558 18.8261 8.13513 18.7585 8.31306 18.7448C8.49099 18.7311 8.66888 18.7719 8.82307 18.8617C9.37639 19.1831 9.9701 19.4292 10.5885 19.5936C10.7605 19.6392 10.9146 19.7359 11.0304 19.871C11.1462 20.006 11.2183 20.1731 11.2371 20.35L11.4727 22.6094Z" fill="white"/>
<path d="M12.4518 17.9429C11.3931 17.9428 10.3581 17.6288 9.47791 17.0405C8.59767 16.4522 7.91164 15.6161 7.50656 14.638C7.10148 13.6598 6.99556 12.5835 7.20218 11.5451C7.40879 10.5068 7.91868 9.55297 8.66735 8.80438C9.41602 8.05579 10.3699 7.54602 11.4082 7.33951C12.4466 7.13301 13.5229 7.23905 14.5011 7.64423C15.4792 8.04942 16.3152 8.73554 16.9034 9.61585C17.4916 10.4961 17.8055 11.5311 17.8055 12.5898C17.8039 14.0092 17.2394 15.37 16.2357 16.3735C15.232 17.3771 13.8711 17.9415 12.4518 17.9429ZM12.4518 8.99451C11.7407 8.99462 11.0457 9.20558 10.4545 9.60071C9.86333 9.99584 9.4026 10.5574 9.13057 11.2144C8.85854 11.8713 8.78742 12.5942 8.92621 13.2916C9.06501 13.989 9.40747 14.6295 9.91031 15.1323C10.4131 15.6351 11.0538 15.9774 11.7512 16.1161C12.4486 16.2548 13.1714 16.1835 13.8284 15.9114C14.4853 15.6393 15.0468 15.1784 15.4418 14.5872C15.8368 13.996 16.0477 13.3009 16.0477 12.5898C16.0466 11.6365 15.6674 10.7226 14.9932 10.0485C14.3191 9.37451 13.4051 8.99544 12.4518 8.99451Z" fill="white"/>
</svg>
